# xmcd CD database file
#
# Track frame offsets:
#	150
#	12622
#	35257
#	51440
#	79595
#	119975
#	160240
#	171547
#	202302
#	229612
#	256597
#	280862
#	311610
#
# Disc length: 4579 seconds
#
# Revision: 0
# Processed by: cddbd v1.5.1PL2 Copyright (c) Steve Scherf et al.
# Submitted via: CDex 1.50Beta6
#
DISCID=ba11e10d
DTITLE=Various Artist - Feelin' The Blues
DYEAR=1995
DGENRE=Blues
TTITLE0=Haldor Bragason - Mer Lidur Vel
TTITLE1=Billy Boy Arnold - I Wish You Would
TTITLE2=Deitra Farr - Just You Fool
TTITLE3=Chicago Beau - Hoodoo Man
TTITLE4=Jimmy Dawkins - Going Down
TTITLE5=Pinetop Perkins - So Sorry
TTITLE6=Shirley King - Oh Johnny
TTITLE7=Haldor Bragason - Black Knight
TTITLE8=Tommy McCracken - Crosscut Saw
TTITLE9=The Blue Ice Band - Worried Life Blues
TTITLE10=The Blue Ice Band - Love Somebody
TTITLE11=Pinetip Perkins - You Got Me Running
TTITLE12=Billy Boy Arnold - Trouble Blues
EXTD=YEAR: 1995
EXTT0=
EXTT1=
EXTT2=
EXTT3=
EXTT4=
EXTT5=
EXTT6=
EXTT7=
EXTT8=
EXTT9=
EXTT10=
EXTT11=
EXTT12=
PLAYORDER=
